HIERARCHY
ROOT Hip
{
	OFFSET -0.314859 0.139423 0.305556
	CHANNELS 6 Xposition Yposition Zposition Xrotation Yrotation Zrotation
	JOINT LowerSpine
	{
		OFFSET -0.013303 0.142686 0.265770
		CHANNELS 6 Xposition Yposition Zposition Xrotation Yrotation Zrotation
		JOINT MiddleSpine
		{
			OFFSET -0.015480 -0.021664 0.235535
			CHANNELS 3 Xrotation Yrotation Zrotation
			JOINT Chest
			{
				OFFSET -0.017563 0.045568 0.294782
				CHANNELS 3 Xrotation Yrotation Zrotation
				JOINT Neck
				{
					OFFSET -0.042211 -0.017065 0.658764
					CHANNELS 6 Xposition Yposition Zposition Xrotation Yrotation Zrotation
					JOINT Head
					{
						OFFSET -0.026220 -0.117884 0.367022
						CHANNELS 3 Xrotation Yrotation Zrotation
						End Site
						{
							OFFSET -0.003480 -0.003981 0.053305
						}
					}
				}
				JOINT LClavicle
				{
					OFFSET 0.014539 -0.226075 0.629944
					CHANNELS 6 Xposition Yposition Zposition Xrotation Yrotation Zrotation
					JOINT LShoulder
					{
						OFFSET 0.347021 0.134902 0.120095
						CHANNELS 3 Xrotation Yrotation Zrotation
						JOINT LForearm
						{
							OFFSET 0.825605 -0.013273 0.049754
							CHANNELS 3 Xrotation Yrotation Zrotation
							JOINT LHand
							{
								OFFSET 0.688403 -0.013115 0.045854
								CHANNELS 3 Xrotation Yrotation Zrotation
								JOINT LFinger1
								{
									OFFSET 0.263684 -0.081874 0.036822
									CHANNELS 6 Xposition Yposition Zposition Xrotation Yrotation Zrotation
									JOINT LFinger11
									{
										OFFSET 0.100986 -0.019003 -0.018800
										CHANNELS 3 Xrotation Yrotation Zrotation
										JOINT LFinger12
										{
											OFFSET 0.068941 -0.012977 -0.012839
											CHANNELS 3 Xrotation Yrotation Zrotation
											End Site
											{
												OFFSET 0.051395 -0.008802 -0.012263
											}
										}
									}
								}
								JOINT LFinger2
								{
									OFFSET 0.268921 -0.014410 0.043805
									CHANNELS 6 Xposition Yposition Zposition Xrotation Yrotation Zrotation
									JOINT LFinger21
									{
										OFFSET 0.123395 -0.002360 0.008204
										CHANNELS 3 Xrotation Yrotation Zrotation
										JOINT LFinger22
										{
											OFFSET 0.068398 -0.001297 0.004567
											CHANNELS 3 Xrotation Yrotation Zrotation
											End Site
											{
												OFFSET 0.053551 -0.001231 -0.000383
											}
										}
									}
								}
								JOINT LFinger3
								{
									OFFSET 0.256817 0.053581 0.037051
									CHANNELS 6 Xposition Yposition Zposition Xrotation Yrotation Zrotation
									JOINT LFinger31
									{
										OFFSET 0.112496 0.004482 0.001762
										CHANNELS 3 Xrotation Yrotation Zrotation
										JOINT LFinger32
										{
											OFFSET 0.064105 0.002566 0.001025
											CHANNELS 3 Xrotation Yrotation Zrotation
											End Site
											{
												OFFSET 0.053460 0.001479 -0.003033
											}
										}
									}
								}
								JOINT LFinger4
								{
									OFFSET 0.241628 0.099838 0.001862
									CHANNELS 6 Xposition Yposition Zposition Xrotation Yrotation Zrotation
									JOINT LFinger41
									{
										OFFSET 0.070219 0.017957 -0.009107
										CHANNELS 3 Xrotation Yrotation Zrotation
										JOINT LFinger42
										{
											OFFSET 0.051493 0.013176 -0.006663
											CHANNELS 3 Xrotation Yrotation Zrotation
											End Site
											{
												OFFSET 0.051462 0.010920 -0.010090
											}
										}
									}
								}
								JOINT LFinger0
								{
									OFFSET 0.056970 -0.041397 -0.040175
									CHANNELS 6 Xposition Yposition Zposition Xrotation Yrotation Zrotation
									JOINT LFinger01
									{
										OFFSET 0.103236 -0.078611 -0.030780
										CHANNELS 3 Xrotation Yrotation Zrotation
										JOINT LFinger02
										{
											OFFSET 0.068159 -0.049407 -0.022153
											CHANNELS 3 Xrotation Yrotation Zrotation
											End Site
											{
												OFFSET 0.042719 -0.029481 -0.013240
											}
										}
									}
								}
							}
						}
					}
				}
				JOINT RClavicle
				{
					OFFSET -0.105163 -0.223090 0.622351
					CHANNELS 6 Xposition Yposition Zposition Xrotation Yrotation Zrotation
					JOINT RShoulder
					{
						OFFSET -0.352349 0.152351 0.075752
						CHANNELS 3 Xrotation Yrotation Zrotation
						JOINT RForearm
						{
							OFFSET -0.824913 0.027851 -0.054938
							CHANNELS 3 Xrotation Yrotation Zrotation
							JOINT RHand
							{
								OFFSET -0.688479 0.021191 -0.041482
								CHANNELS 3 Xrotation Yrotation Zrotation
								JOINT RFinger1
								{
									OFFSET -0.269957 -0.068578 0.002976
									CHANNELS 6 Xposition Yposition Zposition Xrotation Yrotation Zrotation
									JOINT RFinger11
									{
										OFFSET -0.098622 -0.014030 -0.031461
										CHANNELS 3 Xrotation Yrotation Zrotation
										JOINT RFinger12
										{
											OFFSET -0.067327 -0.009582 -0.021485
											CHANNELS 3 Xrotation Yrotation Zrotation
											End Site
											{
												OFFSET -0.049808 -0.006280 -0.018682
											}
										}
									}
								}
								JOINT RFinger2
								{
									OFFSET -0.272681 -0.000915 0.009454
									CHANNELS 6 Xposition Yposition Zposition Xrotation Yrotation Zrotation
									JOINT RFinger21
									{
										OFFSET -0.123410 0.003789 -0.007450
										CHANNELS 3 Xrotation Yrotation Zrotation
										JOINT RFinger22
										{
											OFFSET -0.068407 0.002114 -0.004110
											CHANNELS 3 Xrotation Yrotation Zrotation
											End Site
											{
												OFFSET -0.053068 0.001426 -0.007146
											}
										}
									}
								}
								JOINT RFinger3
								{
									OFFSET -0.256464 0.066370 0.004494
									CHANNELS 6 Xposition Yposition Zposition Xrotation Yrotation Zrotation
									JOINT RFinger31
									{
										OFFSET -0.111456 0.010062 -0.012443
										CHANNELS 3 Xrotation Yrotation Zrotation
										JOINT RFinger32
										{
											OFFSET -0.063515 0.005746 -0.007070
											CHANNELS 3 Xrotation Yrotation Zrotation
											End Site
											{
												OFFSET -0.052509 0.004119 -0.009754
											}
										}
									}
								}
								JOINT RFinger4
								{
									OFFSET -0.234678 0.111706 -0.028350
									CHANNELS 6 Xposition Yposition Zposition Xrotation Yrotation Zrotation
									JOINT RFinger41
									{
										OFFSET -0.067529 0.021389 -0.017842
										CHANNELS 3 Xrotation Yrotation Zrotation
										JOINT RFinger42
										{
											OFFSET -0.049521 0.015693 -0.013067
											CHANNELS 3 Xrotation Yrotation Zrotation
											End Site
											{
												OFFSET -0.049170 0.013428 -0.016473
											}
										}
									}
								}
								JOINT RFinger0
								{
									OFFSET -0.053424 -0.038644 -0.047174
									CHANNELS 6 Xposition Yposition Zposition Xrotation Yrotation Zrotation
									JOINT RFinger01
									{
										OFFSET -0.102294 -0.073492 -0.043822
										CHANNELS 3 Xrotation Yrotation Zrotation
										JOINT RFinger02
										{
											OFFSET -0.067180 -0.046035 -0.030735
											CHANNELS 3 Xrotation Yrotation Zrotation
											End Site
											{
												OFFSET -0.042115 -0.027367 -0.018621
											}
										}
									}
								}
							}
						}
					}
				}
			}
		}
	}
	JOINT RThigh
	{
		OFFSET -0.313055 0.027533 0.098666
		CHANNELS 6 Xposition Yposition Zposition Xrotation Yrotation Zrotation
		JOINT RShin
		{
			OFFSET 0.055522 0.054320 -1.204935
			CHANNELS 3 Xrotation Yrotation Zrotation
			JOINT RFoot
			{
				OFFSET 0.076277 0.052797 -1.181795
				CHANNELS 3 Xrotation Yrotation Zrotation
				JOINT RToe
				{
					OFFSET 0.002400 -0.266294 -0.142432
					CHANNELS 3 Xrotation Yrotation Zrotation
					End Site
					{
						OFFSET -0.001176 -0.053497 -0.002466
					}
				}
			}
		}
	}
	JOINT LThigh
	{
		OFFSET 0.299061 0.012284 0.137501
		CHANNELS 6 Xposition Yposition Zposition Xrotation Yrotation Zrotation
		JOINT LShin
		{
			OFFSET 0.099841 0.053217 -1.202132
			CHANNELS 3 Xrotation Yrotation Zrotation
			JOINT LFoot
			{
				OFFSET 0.076277 0.052797 -1.181795
				CHANNELS 3 Xrotation Yrotation Zrotation
				JOINT LToe
				{
					OFFSET 0.002400 -0.266296 -0.142432
					CHANNELS 3 Xrotation Yrotation Zrotation
					End Site
					{
						OFFSET -0.001176 -0.053496 -0.002466
					}
				}
			}
		}
	}
}
MOTION
Frames: 5
Frame Time: 0.041667
-0.321905 0.519163 2.057050 49.548023 -9.922984 -19.139609 -0.013303 0.142685 0.265770 0.041617 0.027335 -0.005987 6.251309 2.838555 -1.309007 22.223383 6.963987 -5.852801 -0.042211 -0.017065 0.658765 -24.283382 18.046907 8.682651 -18.579602 -0.066863 -1.256167 0.014539 -0.226074 0.629944 -0.031457 -1.448290 -0.065264 24.989654 -14.392327 -46.961140 3.516616 0.684822 -45.326829 0.000716 -0.000007 0.000824 0.263684 -0.081874 0.036821 0.000001 0.000005 -0.000043 0.000001 -0.000022 0.000073 -0.000003 -0.000002 -0.000031 0.268921 -0.014410 0.043805 0.000008 -0.000007 -0.000029 -0.000002 0.000006 0.000008 0.000008 0.000009 -0.000040 0.256817 0.053581 0.037051 0.000008 -0.000003 -0.000038 0.000003 0.000004 -0.000011 -0.000004 -0.000006 0.000019 0.241629 0.099838 0.001861 0.000001 0.000009 -0.000039 -0.000000 0.000002 -0.000013 0.000003 -0.000002 0.000023 0.056970 -0.041397 -0.040175 0.000015 0.000007 -0.000052 -0.000006 -0.000021 0.000042 0.000007 -0.000008 0.000002 -0.105163 -0.223089 0.622351 -0.108742 -4.554287 -0.214386 58.310295 2.413003 48.344601 -1.538243 -4.990348 73.259523 -0.015478 -0.001530 -0.047278 -0.269957 -0.068578 0.002976 -0.000001 -0.000010 -0.000001 -0.000002 0.000001 0.000010 0.000006 -0.000006 0.000015 -0.272682 -0.000915 0.009454 -0.000004 -0.000002 -0.000004 0.000004 -0.000005 0.000018 0.000002 -0.000000 -0.000003 -0.256465 0.066370 0.004494 -0.000000 0.000001 -0.000000 0.000000 0.000007 0.000001 0.000006 0.000001 0.000023 -0.234679 0.111706 -0.028350 -0.000001 -0.000001 0.000004 0.000001 -0.000003 0.000004 0.000006 -0.000001 -0.000002 -0.053425 -0.038643 -0.047174 -0.000011 -0.000004 -0.000010 0.000009 0.000009 -0.000011 0.000007 0.000000 0.000016 -0.291248 0.043737 0.027886 -101.663336 -14.451155 -3.836903 60.502984 0.602493 3.887587 3.754132 -0.179800 0.431100 -2.197211 0.057404 -0.138304 0.317246 -0.070560 0.063234 -45.183655 -14.068944 -3.794166 58.684849 0.525913 3.790054 0.239657 0.269351 -0.509479 -52.153173 2.533725 -2.320275 
-0.360117 0.471083 2.083631 49.471289 -8.431849 -18.380900 -0.013303 0.142686 0.265770 0.053108 0.034910 -0.007652 6.434016 2.654523 -1.177104 23.618716 5.829313 -4.308190 -0.042211 -0.017065 0.658765 -24.123446 17.720548 8.466953 -19.352472 -0.776723 -1.485634 0.014539 -0.226075 0.629944 -0.032606 -1.443721 -0.066975 27.387600 -17.263069 -41.388826 4.091488 0.527467 -52.683264 0.000731 -0.000007 0.000848 0.263684 -0.081874 0.036821 0.000002 0.000004 -0.000042 0.000007 -0.000024 0.000074 -0.000009 -0.000006 -0.000030 0.268921 -0.014410 0.043805 0.000006 -0.000007 -0.000031 0.000001 0.000008 0.000007 0.000006 0.000009 -0.000042 0.256817 0.053581 0.037051 0.000006 -0.000003 -0.000031 0.000004 0.000007 -0.000014 -0.000000 -0.000004 0.000020 0.241629 0.099838 0.001861 0.000002 0.000006 -0.000035 -0.000000 -0.000001 -0.000011 -0.000001 -0.000002 0.000023 0.056970 -0.041397 -0.040175 0.000011 0.000005 -0.000048 -0.000011 -0.000019 0.000044 0.000005 -0.000009 -0.000002 -0.105163 -0.223089 0.622351 -0.105808 -4.440371 -0.208903 58.039218 0.451406 44.564379 -1.294291 -5.550863 81.289264 -0.121480 -0.007782 -0.381181 -0.269957 -0.068578 0.002976 -0.000002 -0.000007 0.000000 0.000003 -0.000000 0.000009 0.000004 -0.000009 0.000012 -0.272682 -0.000915 0.009454 -0.000001 -0.000000 -0.000001 0.000003 -0.000008 0.000013 0.000001 -0.000003 -0.000005 -0.256464 0.066371 0.004494 -0.000001 0.000004 -0.000001 0.000001 0.000006 0.000002 -0.000001 -0.000003 0.000019 -0.234679 0.111706 -0.028350 0.000001 0.000000 0.000006 0.000000 -0.000002 0.000002 0.000004 0.000002 -0.000002 -0.053425 -0.038643 -0.047174 -0.000014 -0.000002 -0.000008 0.000008 0.000012 -0.000016 0.000007 -0.000005 0.000021 -0.292776 0.050898 0.035847 -99.060583 -15.405760 -2.885500 59.096176 0.542972 3.812362 3.621609 0.480156 -0.909959 -3.018180 0.080209 -0.189400 0.317535 -0.073035 0.061868 -52.501366 -13.094292 -7.791304 65.027697 0.806154 4.119231 0.336833 0.009303 -0.017541 -51.260269 2.475432 -2.302602 
-0.392976 0.422385 2.108701 49.433422 -6.958855 -17.325762 -0.013303 0.142686 0.265771 0.067183 0.044203 -0.009697 6.606168 2.483981 -1.044156 24.914742 4.943059 -2.899421 -0.042211 -0.017065 0.658765 -23.915079 17.338893 8.214334 -19.953394 -1.244727 -1.649599 0.014539 -0.226075 0.629944 -0.034061 -1.506498 -0.069902 28.971422 -18.692609 -35.912462 4.649772 0.292867 -60.170592 0.000755 -0.000005 0.000877 0.263684 -0.081874 0.036822 0.000006 0.000006 -0.000040 -0.000002 -0.000022 0.000071 -0.000006 -0.000006 -0.000021 0.268921 -0.014410 0.043805 0.000008 -0.000007 -0.000032 0.000002 0.000003 0.000007 0.000009 0.000008 -0.000041 0.256817 0.053582 0.037051 0.000009 -0.000000 -0.000033 0.000006 0.000008 -0.000016 -0.000001 -0.000008 0.000020 0.241629 0.099838 0.001861 0.000003 0.000009 -0.000035 0.000002 0.000002 -0.000016 0.000003 -0.000002 0.000023 0.056970 -0.041397 -0.040175 0.000015 0.000003 -0.000049 -0.000009 -0.000017 0.000045 0.000006 -0.000007 -0.000003 -0.105163 -0.223089 0.622351 -0.101701 -4.280516 -0.201219 56.113921 -1.587992 41.365886 -1.045759 -5.966608 87.655513 -0.470276 -0.013338 -1.317410 -0.269957 -0.068578 0.002976 0.000007 -0.000002 -0.000002 0.000003 -0.000003 0.000012 -0.000000 0.000000 0.000011 -0.272681 -0.000916 0.009454 0.000004 0.000003 -0.000001 0.000002 -0.000009 0.000016 0.000002 0.000002 -0.000006 -0.256464 0.066370 0.004494 0.000005 0.000008 -0.000006 0.000000 0.000002 0.000006 0.000002 -0.000006 0.000016 -0.234679 0.111706 -0.028350 0.000005 0.000006 -0.000002 0.000003 0.000000 0.000003 -0.000000 -0.000002 0.000000 -0.053424 -0.038643 -0.047174 -0.000008 0.000002 -0.000012 0.000006 0.000012 -0.000016 0.000011 -0.000004 0.000019 -0.294257 0.057727 0.043377 -96.694865 -15.982103 -1.887594 57.919137 0.494606 3.748321 3.704357 1.012890 -1.985900 -4.072126 0.110553 -0.254506 0.317836 -0.075541 0.060444 -60.625060 -11.663310 -10.793152 70.765596 1.089667 4.388768 0.423090 -0.155151 0.296603 -48.928234 2.324549 -2.252183 
-0.417470 0.372382 2.124752 49.287615 -5.675334 -16.175326 -0.013303 0.142686 0.265771 0.085826 0.056505 -0.012426 6.766195 2.327811 -0.911403 26.080548 4.274467 -1.650352 -0.042211 -0.017065 0.658765 -23.616141 16.952671 7.951189 -20.386385 -1.555618 -1.764108 0.014539 -0.226075 0.629943 -0.036568 -1.613853 -0.074924 29.406153 -18.714295 -30.855311 5.156187 -0.002787 -67.434287 0.000777 -0.000010 0.000900 0.263684 -0.081874 0.036821 0.000004 0.000004 -0.000038 0.000001 -0.000020 0.000071 -0.000003 -0.000006 -0.000025 0.268921 -0.014410 0.043805 0.000007 -0.000012 -0.000029 0.000002 0.000009 0.000008 0.000008 0.000011 -0.000042 0.256817 0.053581 0.037051 0.000007 -0.000006 -0.000032 0.000003 0.000008 -0.000016 -0.000002 -0.000010 0.000021 0.241629 0.099838 0.001861 0.000000 0.000003 -0.000034 0.000001 0.000000 -0.000014 0.000006 -0.000003 0.000024 0.056970 -0.041397 -0.040175 0.000017 0.000003 -0.000047 -0.000008 -0.000016 0.000041 0.000009 -0.000009 0.000001 -0.105164 -0.223089 0.622351 -0.096801 -4.088003 -0.191982 52.952380 -2.490152 38.457237 -0.787235 -6.311796 93.305732 -1.192368 -0.014915 -2.512637 -0.269958 -0.068578 0.002976 0.000003 -0.000006 -0.000003 0.000006 -0.000002 0.000010 0.000004 -0.000006 0.000015 -0.272682 -0.000915 0.009454 -0.000002 0.000001 -0.000004 0.000004 -0.000002 0.000013 -0.000003 -0.000004 -0.000006 -0.256464 0.066370 0.004494 0.000001 0.000001 -0.000002 0.000002 0.000003 0.000002 -0.000001 -0.000006 0.000023 -0.234679 0.111706 -0.028351 0.000003 0.000001 -0.000001 0.000001 -0.000003 0.000000 0.000002 0.000000 -0.000000 -0.053425 -0.038643 -0.047174 -0.000009 -0.000000 -0.000010 0.000006 0.000012 -0.000016 0.000005 -0.000005 0.000018 -0.295686 0.064190 0.050436 -94.709630 -15.986116 -1.323925 57.543360 0.479443 3.727668 3.358413 1.377578 -2.709859 -5.069712 0.140378 -0.315611 0.318149 -0.078076 0.058960 -69.272632 -10.022638 -12.075451 75.637214 1.350563 4.594445 0.470814 -0.171626 0.329070 -45.002399 2.075574 -2.153579 
-0.434332 0.320252 2.129870 49.001604 -4.688328 -15.039631 -0.013303 0.142686 0.265771 0.112538 0.074149 -0.016349 6.911574 2.187267 -0.780284 26.991733 3.802283 -0.704136 -0.042211 -0.017065 0.658765 -23.214510 16.501522 7.641900 -20.830929 -1.815937 -1.869211 0.014539 -0.226075 0.629944 -0.038976 -1.717246 -0.079756 28.798437 -17.662046 -26.174274 5.596205 -0.340228 -74.313735 0.000799 -0.000007 0.000931 0.263684 -0.081874 0.036821 -0.000002 0.000002 -0.000043 0.000003 -0.000019 0.000073 -0.000002 -0.000002 -0.000027 0.268921 -0.014410 0.043805 0.000003 -0.000009 -0.000032 -0.000002 0.000006 0.000008 0.000003 0.000005 -0.000038 0.256817 0.053581 0.037051 0.000005 -0.000003 -0.000035 0.000000 0.000004 -0.000014 -0.000003 -0.000005 0.000023 0.241629 0.099838 0.001861 -0.000001 0.000007 -0.000038 -0.000000 -0.000001 -0.000013 -0.000000 -0.000008 0.000022 0.056970 -0.041397 -0.040175 0.000018 0.000009 -0.000052 -0.000007 -0.000020 0.000044 0.000010 -0.000002 -0.000007 -0.105163 -0.223089 0.622351 -0.091988 -3.898029 -0.182896 48.694065 -2.035833 35.926617 -0.527270 -6.597769 98.374415 -2.511675 -0.239715 -2.732465 -0.269957 -0.068578 0.002976 -0.000001 -0.000007 0.000002 0.000005 0.000001 0.000015 0.000002 -0.000008 0.000010 -0.272681 -0.000915 0.009454 -0.000001 -0.000001 -0.000001 -0.000000 -0.000007 0.000013 0.000007 0.000002 -0.000004 -0.256464 0.066370 0.004494 -0.000001 0.000001 -0.000001 -0.000003 0.000006 -0.000000 -0.000001 -0.000006 0.000023 -0.234679 0.111706 -0.028350 0.000001 -0.000004 0.000004 -0.000004 0.000005 -0.000000 0.000002 0.000002 -0.000001 -0.053425 -0.038643 -0.047174 -0.000014 -0.000007 -0.000006 0.000008 0.000012 -0.000017 0.000007 -0.000007 0.000020 -0.297058 0.070262 0.056996 -93.041697 -15.355956 -1.478809 58.035291 0.499321 3.754683 2.411372 1.533767 -2.973033 -5.927487 0.166869 -0.367731 0.318474 -0.080636 0.057418 -77.927213 -8.334545 -12.077667 79.265882 1.555757 4.732862 0.521269 -0.031025 0.061339 -39.679704 1.749919 -1.993142 
